<svg viewBox="0 0 1200 630" xmlns="http://www.w3.org/2000/svg" fill="none">
  <rect width="1200" height="630" fill="#0A0A0F"/>
  <rect width="1200" height="630" fill="url(#g)" opacity="0.6"/>
  <defs>
    <radialGradient id="g" cx="0.2" cy="0.2" r="0.6">
      <stop offset="0" stop-color="#34C759" stop-opacity="0.25"/>
      <stop offset="1" stop-color="#34C759" stop-opacity="0"/>
    </radialGradient>
  </defs>

  <text x="80" y="90" font-family="-apple-system, Inter" font-size="18" font-weight="500" fill="#34C759" letter-spacing="3">SCANUP · BY VISION GO</text>
  <text x="80" y="240" font-family="-apple-system, Inter" font-size="88" font-weight="600" fill="#fff" letter-spacing="-3">Dokumente.</text>
  <text x="80" y="340" font-family="-apple-system, Inter" font-size="88" font-weight="600" fill="#fff" letter-spacing="-3">Privat. Digital.</text>
  <text x="80" y="420" font-family="-apple-system, Inter" font-size="24" fill="rgba(255,255,255,0.75)" letter-spacing="-0.3">Scan · OCR · Signatur · Passwort-Schutz</text>
  <text x="80" y="455" font-family="-apple-system, Inter" font-size="24" fill="rgba(255,255,255,0.75)" letter-spacing="-0.3">iOS &amp; Android · DSGVO · On-Device</text>

  <g transform="translate(1050, 70)">
    <path d="M0 0 L10 18 L14 11" stroke="#fff" stroke-width="2.4" stroke-linecap="round"/>
    <path d="M28 0 L18 18 L14 11" stroke="#34C759" stroke-width="2.4" stroke-linecap="round"/>
  </g>
  <text x="1095" y="80" font-family="-apple-system" font-size="14" fill="rgba(255,255,255,0.7)">Vision GO</text>

  <!-- Document corner decorations -->
  <g transform="translate(800, 200)" opacity="0.8">
    <path d="M0 0 L20 0 M0 0 L0 20" stroke="#34C759" stroke-width="3" stroke-linecap="round"/>
    <path d="M180 0 L160 0 M180 0 L180 20" stroke="#34C759" stroke-width="3" stroke-linecap="round"/>
    <path d="M0 240 L20 240 M0 240 L0 220" stroke="#34C759" stroke-width="3" stroke-linecap="round"/>
    <path d="M180 240 L160 240 M180 240 L180 220" stroke="#34C759" stroke-width="3" stroke-linecap="round"/>
    <rect x="14" y="14" width="152" height="212" rx="3" fill="#fff" opacity="0.95"/>
    <rect x="30" y="40" width="120" height="6" rx="2" fill="#0A0A0F" opacity="0.85"/>
    <rect x="30" y="58" width="80" height="3" rx="1" fill="#0A0A0F" opacity="0.5"/>
    <line x1="30" y1="80" x2="150" y2="80" stroke="#0A0A0F" opacity="0.15"/>
    <rect x="30" y="96" width="120" height="3" rx="1" fill="#0A0A0F" opacity="0.6"/>
    <rect x="30" y="108" width="115" height="3" rx="1" fill="#0A0A0F" opacity="0.6"/>
    <rect x="30" y="120" width="100" height="3" rx="1" fill="#0A0A0F" opacity="0.6"/>
    <rect x="30" y="140" width="120" height="3" rx="1" fill="#0A0A0F" opacity="0.6"/>
    <rect x="30" y="152" width="60" height="3" rx="1" fill="#0A0A0F" opacity="0.6"/>
    <path d="M30 180 Q40 172 50 180 T70 178" stroke="#0066CC" stroke-width="1.5" fill="none"/>
  </g>

  <text x="80" y="565" font-family="JetBrains Mono, monospace" font-size="13" fill="rgba(255,255,255,0.5)" letter-spacing="2">VISIONGO.AT/PROJEKTE/SCANUP</text>
</svg>
