<svg viewBox="0 0 1200 675" xmlns="http://www.w3.org/2000/svg" fill="none">
  <defs>
    <linearGradient id="g" x1="0" y1="0" x2="1" y2="1">
      <stop offset="0" stop-color="#1E0A3C"/>
      <stop offset="1" stop-color="#5B21B6"/>
    </linearGradient>
    <radialGradient id="glow" cx="0.85" cy="0.3" r="0.55">
      <stop offset="0" stop-color="#A78BFA" stop-opacity="0.30"/>
      <stop offset="1" stop-color="#A78BFA" stop-opacity="0"/>
    </radialGradient>
  </defs>
  <rect width="1200" height="675" fill="url(#g)"/>
  <rect width="1200" height="675" fill="url(#glow)"/>

  <text x="80" y="90" font-family="Inter" font-size="14" fill="#A78BFA" letter-spacing="3" font-weight="600">KI &amp; MACHINE LEARNING</text>
  <text y="240" font-family="Inter" font-size="64" font-weight="600" fill="#fff" letter-spacing="-2"><tspan x="80" dy="0">Claude Sonnet 4.6 im</tspan><tspan x="80" dy="80">produktiven Einsatz: Was sich</tspan><tspan x="80" dy="80">gegenüber 4.5 wirklich</tspan></text>

  <text x="80" y="595" font-family="JetBrains Mono" font-size="12" fill="rgba(255,255,255,0.55)" letter-spacing="2">VISION GO · 13.05.2026 · 7 MIN</text>

  <!-- Vision GO mark -->
  <g transform="translate(1050, 70)">
    <path d="M0 0 L10 18 L14 11" stroke="#fff" stroke-width="2.4" stroke-linecap="round"/>
    <path d="M28 0 L18 18 L14 11" stroke="#A78BFA" stroke-width="2.4" stroke-linecap="round"/>
  </g>
  <text x="1095" y="80" font-family="Inter" font-size="14" fill="rgba(255,255,255,0.7)">Vision GO</text>

  <!-- Decoration: floating cards -->
  <g transform="translate(820, 380)" opacity="0.5">
    <rect width="240" height="140" rx="14" fill="rgba(255,255,255,0.08)" stroke="rgba(255,255,255,0.1)"/>
    <rect x="14" y="14" width="80" height="3" rx="1" fill="rgba(255,255,255,0.7)"/>
    <rect x="14" y="22" width="60" height="2" rx="1" fill="rgba(255,255,255,0.4)"/>
    <rect x="14" y="36" width="200" height="2" rx="1" fill="rgba(255,255,255,0.3)"/>
    <rect x="14" y="42" width="180" height="2" rx="1" fill="rgba(255,255,255,0.3)"/>
    <rect x="14" y="48" width="140" height="2" rx="1" fill="rgba(255,255,255,0.3)"/>
  </g>
</svg>