<svg viewBox="0 0 280 560" xmlns="http://www.w3.org/2000/svg" fill="none">
  <defs>
    <linearGradient id="e2-bg" x1="0" y1="0" x2="0" y2="1">
      <stop offset="0" stop-color="#001F3F"/>
      <stop offset="1" stop-color="#003580"/>
    </linearGradient>
  </defs>
  <rect width="280" height="560" rx="36" fill="url(#e2-bg)"/>

  <text x="22" y="32" fill="#fff" font-family="-apple-system" font-size="12" font-weight="600">9:41</text>
  <rect x="248" y="24" width="14" height="8" rx="2" fill="#fff" opacity="0.8"/>

  <text x="22" y="74" fill="#fff" font-family="-apple-system" font-size="22" font-weight="700">Ziel wählen</text>

  <rect x="20" y="92" width="240" height="42" rx="14" fill="rgba(255,255,255,0.10)"/>
  <text x="36" y="118" fill="#fff" font-family="-apple-system" font-size="13">🔍 Land suchen...</text>

  <text x="22" y="166" fill="#88B7FF" font-size="10" font-weight="600" letter-spacing="1.5">BELIEBT BEI REISENDEN</text>

  <!-- Country tiles 2x3 -->
  <g transform="translate(20, 184)">
    <rect width="74" height="68" rx="12" fill="rgba(255,255,255,0.10)"/>
    <text x="14" y="22" font-size="24">🇺🇸</text>
    <text x="14" y="48" fill="#fff" font-size="11" font-weight="600">USA</text>
    <text x="14" y="60" fill="#88B7FF" font-size="9">ab €&#8201;9</text>
  </g>
  <g transform="translate(103, 184)">
    <rect width="74" height="68" rx="12" fill="rgba(255,255,255,0.10)"/>
    <text x="14" y="22" font-size="24">🇹🇷</text>
    <text x="14" y="48" fill="#fff" font-size="11" font-weight="600">Türkei</text>
    <text x="14" y="60" fill="#88B7FF" font-size="9">ab €&#8201;7</text>
  </g>
  <g transform="translate(186, 184)">
    <rect width="74" height="68" rx="12" fill="rgba(255,255,255,0.10)"/>
    <text x="14" y="22" font-size="24">🇪🇸</text>
    <text x="14" y="48" fill="#fff" font-size="11" font-weight="600">Spanien</text>
    <text x="14" y="60" fill="#88B7FF" font-size="9">ab €&#8201;6</text>
  </g>

  <g transform="translate(20, 264)">
    <rect width="74" height="68" rx="12" fill="rgba(255,255,255,0.10)"/>
    <text x="14" y="22" font-size="24">🇹🇭</text>
    <text x="14" y="48" fill="#fff" font-size="11" font-weight="600">Thailand</text>
    <text x="14" y="60" fill="#88B7FF" font-size="9">ab €&#8201;8</text>
  </g>
  <g transform="translate(103, 264)">
    <rect width="74" height="68" rx="12" fill="rgba(255,255,255,0.10)"/>
    <text x="14" y="22" font-size="24">🇯🇵</text>
    <text x="14" y="48" fill="#fff" font-size="11" font-weight="600">Japan</text>
    <text x="14" y="60" fill="#88B7FF" font-size="9">ab €&#8201;11</text>
  </g>
  <g transform="translate(186, 264)">
    <rect width="74" height="68" rx="12" fill="rgba(255,255,255,0.10)"/>
    <text x="14" y="22" font-size="24">🇬🇧</text>
    <text x="14" y="48" fill="#fff" font-size="11" font-weight="600">UK</text>
    <text x="14" y="60" fill="#88B7FF" font-size="9">ab €&#8201;6</text>
  </g>

  <text x="22" y="364" fill="#88B7FF" font-size="10" font-weight="600" letter-spacing="1.5">REGIONAL</text>

  <rect x="20" y="380" width="240" height="62" rx="14" fill="rgba(255,255,255,0.10)"/>
  <text x="36" y="404" fill="#fff" font-size="13" font-weight="700">🌍 Europa · 38 Länder</text>
  <text x="36" y="422" fill="rgba(255,255,255,0.6)" font-size="10">Roaming-frei · von Lissabon bis Helsinki</text>
  <text x="222" y="414" fill="#34C759" font-size="12" font-weight="600" text-anchor="end">€&#8201;19</text>
  <text x="240" y="414" fill="#fff" font-size="10" text-anchor="end" opacity="0.5">/Monat</text>

  <rect x="20" y="452" width="240" height="62" rx="14" fill="rgba(255,255,255,0.10)"/>
  <text x="36" y="476" fill="#fff" font-size="13" font-weight="700">🌐 Global · 202+ Länder</text>
  <text x="36" y="494" fill="rgba(255,255,255,0.6)" font-size="10">Eine eSIM für alle Reisen</text>
  <text x="222" y="486" fill="#34C759" font-size="12" font-weight="600" text-anchor="end">€&#8201;39</text>
  <text x="240" y="486" fill="#fff" font-size="10" text-anchor="end" opacity="0.5">/Monat</text>
</svg>
