<svg viewBox="0 0 280 560" xmlns="http://www.w3.org/2000/svg" fill="none">
  <defs>
    <linearGradient id="mr-bg" x1="0" y1="0" x2="0" y2="1">
      <stop offset="0" stop-color="#1A0508"/>
      <stop offset="1" stop-color="#3A0810"/>
    </linearGradient>
    <linearGradient id="mr-card" x1="0" y1="0" x2="1" y2="1">
      <stop offset="0" stop-color="#E11D2A"/>
      <stop offset="1" stop-color="#9B0A18"/>
    </linearGradient>
    <linearGradient id="mr-wave" x1="0" y1="0" x2="1" y2="0">
      <stop offset="0" stop-color="#FF4D5A"/>
      <stop offset="1" stop-color="#E11D2A"/>
    </linearGradient>
  </defs>

  <rect width="280" height="560" rx="36" fill="url(#mr-bg)"/>

  <!-- Status bar -->
  <text x="22" y="32" fill="#fff" font-family="-apple-system,Inter" font-size="12" font-weight="600">9:41</text>
  <circle cx="240" cy="28" r="3" fill="#fff" opacity="0.8"/>
  <rect x="248" y="24" width="14" height="8" rx="2" fill="#fff" opacity="0.8"/>

  <!-- Header -->
  <text x="22" y="74" fill="#fff" font-family="-apple-system" font-size="22" font-weight="700" letter-spacing="-0.5">Listen Now</text>
  <text x="22" y="94" fill="#A8898E" font-family="-apple-system" font-size="11">100,000+ stations · worldwide</text>

  <!-- Now Playing Card -->
  <rect x="20" y="116" width="240" height="160" rx="22" fill="url(#mr-card)"/>
  <circle cx="60" cy="178" r="28" fill="rgba(255,255,255,0.18)"/>
  <circle cx="60" cy="178" r="22" fill="rgba(255,255,255,0.14)"/>
  <circle cx="60" cy="178" r="14" fill="#fff"/>
  <circle cx="60" cy="178" r="4" fill="#9B0A18"/>

  <text x="102" y="166" fill="#fff" font-family="-apple-system" font-size="9" letter-spacing="1.5" font-weight="600">LIVE · NOW PLAYING</text>
  <text x="102" y="186" fill="#fff" font-family="-apple-system" font-size="14" font-weight="700">BBC World Service</text>
  <text x="102" y="201" fill="#fff" opacity="0.75" font-family="-apple-system" font-size="11">London · United Kingdom</text>

  <!-- Waveform -->
  <g transform="translate(102, 220)" opacity="0.85">
    <rect x="0" y="6" width="2" height="8" rx="1" fill="#fff"/>
    <rect x="5" y="2" width="2" height="16" rx="1" fill="#fff"/>
    <rect x="10" y="5" width="2" height="10" rx="1" fill="#fff"/>
    <rect x="15" y="0" width="2" height="20" rx="1" fill="#fff"/>
    <rect x="20" y="4" width="2" height="12" rx="1" fill="#fff"/>
    <rect x="25" y="1" width="2" height="18" rx="1" fill="#fff"/>
    <rect x="30" y="7" width="2" height="6" rx="1" fill="#fff"/>
    <rect x="35" y="3" width="2" height="14" rx="1" fill="#fff"/>
    <rect x="40" y="5" width="2" height="10" rx="1" fill="#fff"/>
    <rect x="45" y="2" width="2" height="16" rx="1" fill="#fff"/>
    <rect x="50" y="6" width="2" height="8" rx="1" fill="#fff"/>
    <rect x="55" y="3" width="2" height="14" rx="1" fill="#fff"/>
    <rect x="60" y="0" width="2" height="20" rx="1" fill="#fff"/>
    <rect x="65" y="5" width="2" height="10" rx="1" fill="#fff"/>
    <rect x="70" y="2" width="2" height="16" rx="1" fill="#fff"/>
    <rect x="75" y="6" width="2" height="8" rx="1" fill="#fff"/>
    <rect x="80" y="3" width="2" height="14" rx="1" fill="#fff"/>
    <rect x="85" y="1" width="2" height="18" rx="1" fill="#fff"/>
    <rect x="90" y="4" width="2" height="12" rx="1" fill="#fff"/>
    <rect x="95" y="6" width="2" height="8" rx="1" fill="#fff"/>
    <rect x="100" y="2" width="2" height="16" rx="1" fill="#fff"/>
    <rect x="105" y="5" width="2" height="10" rx="1" fill="#fff"/>
    <rect x="110" y="0" width="2" height="20" rx="1" fill="#fff"/>
    <rect x="115" y="4" width="2" height="12" rx="1" fill="#fff"/>
    <rect x="120" y="6" width="2" height="8" rx="1" fill="#fff"/>
    <rect x="125" y="2" width="2" height="16" rx="1" fill="#fff"/>
    <rect x="130" y="5" width="2" height="10" rx="1" fill="#fff"/>
    <rect x="135" y="3" width="2" height="14" rx="1" fill="#fff"/>
    <rect x="140" y="0" width="2" height="20" rx="1" fill="#fff"/>
    <rect x="145" y="7" width="2" height="6" rx="1" fill="#fff"/>
  </g>

  <!-- Section: Popular -->
  <text x="22" y="316" fill="#fff" font-family="-apple-system" font-size="16" font-weight="700">Popular Stations</text>
  <text x="240" y="316" fill="#FF4D5A" font-family="-apple-system" font-size="12" font-weight="600" text-anchor="end">See all ›</text>

  <!-- Station rows -->
  <rect x="20" y="332" width="240" height="58" rx="14" fill="rgba(255,255,255,0.04)"/>
  <rect x="28" y="340" width="42" height="42" rx="10" fill="#5B0A12"/>
  <text x="49" y="365" fill="#FF8A93" font-family="-apple-system" font-size="14" font-weight="800" text-anchor="middle">RP</text>
  <text x="80" y="356" fill="#fff" font-family="-apple-system" font-size="13" font-weight="600">Radio Paradise</text>
  <text x="80" y="373" fill="#A8898E" font-family="-apple-system" font-size="10">Eclectic · 320k</text>
  <circle cx="240" cy="361" r="14" fill="#E11D2A"/>
  <path d="M236 357 L246 361 L236 365 Z" fill="#fff"/>

  <rect x="20" y="398" width="240" height="58" rx="14" fill="rgba(255,255,255,0.04)"/>
  <rect x="28" y="406" width="42" height="42" rx="10" fill="#1A4D8C"/>
  <text x="49" y="431" fill="#88B7FF" font-family="-apple-system" font-size="14" font-weight="800" text-anchor="middle">RF</text>
  <text x="80" y="422" fill="#fff" font-family="-apple-system" font-size="13" font-weight="600">REYFM</text>
  <text x="80" y="439" fill="#A8898E" font-family="-apple-system" font-size="10">#original · Germany</text>
  <circle cx="240" cy="427" r="14" fill="rgba(255,255,255,0.18)"/>
  <path d="M236 423 L246 427 L236 431 Z" fill="#fff"/>

  <rect x="20" y="464" width="240" height="58" rx="14" fill="rgba(255,255,255,0.04)"/>
  <rect x="28" y="472" width="42" height="42" rx="10" fill="#3A0810"/>
  <text x="49" y="497" fill="#FF8A93" font-family="-apple-system" font-size="14" font-weight="800" text-anchor="middle">CV</text>
  <text x="80" y="488" fill="#fff" font-family="-apple-system" font-size="13" font-weight="600">Classic Vinyl HD</text>
  <text x="80" y="505" fill="#A8898E" font-family="-apple-system" font-size="10">Rock · USA</text>
  <circle cx="240" cy="493" r="14" fill="rgba(255,255,255,0.18)"/>
  <path d="M236 489 L246 493 L236 497 Z" fill="#fff"/>
</svg>
