<svg viewBox="0 0 280 560" xmlns="http://www.w3.org/2000/svg" fill="none">
  <defs>
    <linearGradient id="m2-bg" x1="0" y1="0" x2="0" y2="1">
      <stop offset="0" stop-color="#1A0508"/>
      <stop offset="1" stop-color="#3A0810"/>
    </linearGradient>
  </defs>
  <rect width="280" height="560" rx="36" fill="url(#m2-bg)"/>

  <text x="22" y="32" fill="#fff" font-family="-apple-system" font-size="12" font-weight="600">9:41</text>
  <rect x="248" y="24" width="14" height="8" rx="2" fill="#fff" opacity="0.8"/>

  <text x="22" y="74" fill="#fff" font-family="-apple-system" font-size="22" font-weight="700">Suche</text>

  <!-- Search bar -->
  <rect x="20" y="92" width="240" height="42" rx="14" fill="rgba(255,255,255,0.08)"/>
  <circle cx="40" cy="113" r="6" stroke="#A8898E" stroke-width="1.5" fill="none"/>
  <line x1="44" y1="117" x2="48" y2="121" stroke="#A8898E" stroke-width="1.5" stroke-linecap="round"/>
  <text x="58" y="118" fill="#fff" font-family="-apple-system" font-size="13">Wien · Klassik</text>

  <!-- Filter chips -->
  <rect x="20" y="148" width="62" height="28" rx="14" fill="#E11D2A"/>
  <text x="51" y="166" fill="#fff" font-family="-apple-system" font-size="11" font-weight="600" text-anchor="middle">Land</text>
  <rect x="88" y="148" width="62" height="28" rx="14" fill="rgba(255,255,255,0.08)"/>
  <text x="119" y="166" fill="#fff" font-family="-apple-system" font-size="11" text-anchor="middle">Genre</text>
  <rect x="156" y="148" width="62" height="28" rx="14" fill="rgba(255,255,255,0.08)"/>
  <text x="187" y="166" fill="#fff" font-family="-apple-system" font-size="11" text-anchor="middle">Sprache</text>

  <text x="22" y="208" fill="#FF6B5C" font-family="-apple-system" font-size="10" font-weight="600" letter-spacing="1.5">ÖSTERREICH · 6 STATIONEN</text>

  <!-- Stations -->
  <g transform="translate(20, 224)">
    <rect width="240" height="56" rx="14" fill="rgba(255,255,255,0.04)"/>
    <rect x="10" y="10" width="36" height="36" rx="8" fill="#9B0A18"/>
    <text x="28" y="32" fill="#FF6B5C" font-size="12" font-weight="800" text-anchor="middle">Ö1</text>
    <text x="60" y="26" fill="#fff" font-size="13" font-weight="600">Ö1 ORF</text>
    <text x="60" y="42" fill="#A8898E" font-size="10">Wien · Kultur · 128 kbps</text>
    <circle cx="218" cy="28" r="11" fill="#E11D2A"/>
    <path d="M215 25 L222 28 L215 31 Z" fill="#fff"/>
  </g>
  <g transform="translate(20, 290)">
    <rect width="240" height="56" rx="14" fill="rgba(255,255,255,0.04)"/>
    <rect x="10" y="10" width="36" height="36" rx="8" fill="#1A4D8C"/>
    <text x="28" y="32" fill="#88B7FF" font-size="12" font-weight="800" text-anchor="middle">FM4</text>
    <text x="60" y="26" fill="#fff" font-size="13" font-weight="600">Radio FM4</text>
    <text x="60" y="42" fill="#A8898E" font-size="10">Wien · Indie · 192 kbps</text>
    <circle cx="218" cy="28" r="11" fill="rgba(255,255,255,0.18)"/>
    <path d="M215 25 L222 28 L215 31 Z" fill="#fff"/>
  </g>
  <g transform="translate(20, 356)">
    <rect width="240" height="56" rx="14" fill="rgba(255,255,255,0.04)"/>
    <rect x="10" y="10" width="36" height="36" rx="8" fill="#5B0A12"/>
    <text x="28" y="32" fill="#FF8A93" font-size="11" font-weight="800" text-anchor="middle">KK</text>
    <text x="60" y="26" fill="#fff" font-size="13" font-weight="600">Kronehit Klassik</text>
    <text x="60" y="42" fill="#A8898E" font-size="10">Wien · 320 kbps · HD</text>
    <circle cx="218" cy="28" r="11" fill="rgba(255,255,255,0.18)"/>
    <path d="M215 25 L222 28 L215 31 Z" fill="#fff"/>
  </g>
  <g transform="translate(20, 422)">
    <rect width="240" height="56" rx="14" fill="rgba(255,255,255,0.04)"/>
    <rect x="10" y="10" width="36" height="36" rx="8" fill="#3A0810"/>
    <text x="28" y="32" fill="#FFD60A" font-size="11" font-weight="800" text-anchor="middle">RW</text>
    <text x="60" y="26" fill="#fff" font-size="13" font-weight="600">Radio Wien</text>
    <text x="60" y="42" fill="#A8898E" font-size="10">Wien · Pop · 160 kbps</text>
    <circle cx="218" cy="28" r="11" fill="rgba(255,255,255,0.18)"/>
    <path d="M215 25 L222 28 L215 31 Z" fill="#fff"/>
  </g>

  <!-- Mini player -->
  <rect x="20" y="495" width="240" height="48" rx="14" fill="rgba(232,29,42,0.15)" stroke="rgba(232,29,42,0.4)"/>
  <circle cx="42" cy="519" r="13" fill="#fff"/>
  <rect x="38" y="514" width="3" height="10" rx="1" fill="#9B0A18"/>
  <rect x="44" y="514" width="3" height="10" rx="1" fill="#9B0A18"/>
  <text x="62" y="515" fill="#fff" font-size="11" font-weight="600">BBC World Service</text>
  <text x="62" y="529" fill="#A8898E" font-size="9">Now: World Have Your Say</text>
</svg>
