<svg viewBox="0 0 280 560" xmlns="http://www.w3.org/2000/svg" fill="none">
  <rect width="280" height="560" rx="36" fill="#0E0E10"/>
  <text x="22" y="32" fill="#fff" font-family="-apple-system" font-size="12" font-weight="600">9:41</text>
  <rect x="248" y="24" width="14" height="8" rx="2" fill="#fff" opacity="0.8"/>

  <text x="22" y="74" fill="#fff" font-family="-apple-system" font-size="20" font-weight="700">PDF schützen</text>

  <!-- Doc preview small -->
  <g transform="translate(60, 100)">
    <rect width="160" height="60" rx="8" fill="#fff" opacity="0.85"/>
    <rect x="14" y="14" width="80" height="3" rx="1" fill="#0A0A0A" opacity="0.8"/>
    <rect x="14" y="22" width="60" height="2" rx="1" fill="#0A0A0A" opacity="0.5"/>
    <line x1="14" y1="32" x2="146" y2="32" stroke="#0A0A0A" opacity="0.15"/>
    <rect x="14" y="40" width="120" height="2" rx="1" fill="#0A0A0A" opacity="0.6"/>
    <rect x="14" y="46" width="100" height="2" rx="1" fill="#0A0A0A" opacity="0.6"/>
    <rect x="14" y="52" width="80" height="2" rx="1" fill="#0A0A0A" opacity="0.6"/>
  </g>
  <text x="140" y="178" fill="#A8A8A8" font-size="10" text-anchor="middle">Mietvertrag.pdf · 4 Seiten · 1,2 MB</text>

  <!-- Password section -->
  <text x="22" y="216" fill="#34C759" font-size="10" font-weight="600" letter-spacing="1.5">PASSWORT FESTLEGEN</text>

  <rect x="20" y="228" width="240" height="48" rx="12" fill="rgba(255,255,255,0.06)" stroke="rgba(52,199,89,0.4)"/>
  <text x="36" y="244" fill="#A8A8A8" font-size="9" letter-spacing="1">PASSWORT</text>
  <text x="36" y="263" fill="#fff" font-family="JetBrains Mono" font-size="14" letter-spacing="3">••••••••••••</text>
  <circle cx="230" cy="252" r="11" fill="rgba(52,199,89,0.18)"/>
  <path d="M226 248 L230 252 L226 256 M223 248 L227 252 L223 256" stroke="#34C759" stroke-width="1.5" fill="none"/>

  <rect x="20" y="286" width="240" height="48" rx="12" fill="rgba(255,255,255,0.06)"/>
  <text x="36" y="302" fill="#A8A8A8" font-size="9" letter-spacing="1">BESTÄTIGEN</text>
  <text x="36" y="321" fill="#fff" font-family="JetBrains Mono" font-size="14" letter-spacing="3">••••••••••••</text>

  <!-- Encryption info -->
  <rect x="20" y="356" width="240" height="80" rx="12" fill="rgba(52,199,89,0.08)" stroke="rgba(52,199,89,0.2)"/>
  <g transform="translate(36, 372)">
    <path d="M0 8 c0,-4 4,-8 8,-8 c4,0 8,4 8,8 v6 h-16 z" fill="#34C759"/>
    <rect x="0" y="14" width="16" height="14" rx="2" fill="#34C759"/>
  </g>
  <text x="64" y="384" fill="#fff" font-size="13" font-weight="600">AES-256 Verschlüsselung</text>
  <text x="64" y="400" fill="rgba(255,255,255,0.65)" font-size="10">Dieselbe Sicherheit wie Banken</text>
  <text x="64" y="416" fill="rgba(255,255,255,0.65)" font-size="10">und Regierungs-Akten verwenden.</text>

  <!-- Apply button -->
  <rect x="20" y="464" width="240" height="50" rx="14" fill="#34C759"/>
  <text x="140" y="494" fill="#0A0A0A" font-size="14" font-weight="700" text-anchor="middle">PDF verschlüsseln &amp; speichern</text>
</svg>
