<svg viewBox="0 0 280 560" xmlns="http://www.w3.org/2000/svg" fill="none">
  <rect width="280" height="560" rx="36" fill="#0E0E10"/>

  <text x="22" y="32" fill="#fff" font-family="-apple-system" font-size="12" font-weight="600">9:41</text>
  <rect x="248" y="24" width="14" height="8" rx="2" fill="#fff" opacity="0.8"/>

  <text x="22" y="74" fill="#fff" font-family="-apple-system" font-size="22" font-weight="700">Meine Scans</text>
  <text x="22" y="94" fill="#A8A8A8" font-size="11">312 Dokumente · 1,2 GB lokal</text>

  <!-- Filter pills -->
  <rect x="20" y="112" width="56" height="26" rx="13" fill="#34C759"/>
  <text x="48" y="128" fill="#0A0A0A" font-size="10" font-weight="700" text-anchor="middle">Alle</text>
  <rect x="82" y="112" width="68" height="26" rx="13" fill="rgba(255,255,255,0.10)"/>
  <text x="116" y="128" fill="#fff" font-size="10" text-anchor="middle">Geschützt</text>
  <rect x="156" y="112" width="62" height="26" rx="13" fill="rgba(255,255,255,0.10)"/>
  <text x="187" y="128" fill="#fff" font-size="10" text-anchor="middle">OCR</text>

  <!-- Document cards grid -->
  <g transform="translate(20, 156)">
    <rect width="110" height="140" rx="12" fill="#fff" opacity="0.95"/>
    <rect x="14" y="14" width="60" height="3" rx="1" fill="#0A0A0A" opacity="0.8"/>
    <rect x="14" y="22" width="40" height="2" rx="1" fill="#0A0A0A" opacity="0.4"/>
    <line x1="14" y1="34" x2="96" y2="34" stroke="#0A0A0A" opacity="0.1"/>
    <rect x="14" y="42" width="80" height="2" rx="1" fill="#0A0A0A" opacity="0.6"/>
    <rect x="14" y="48" width="76" height="2" rx="1" fill="#0A0A0A" opacity="0.6"/>
    <rect x="14" y="54" width="60" height="2" rx="1" fill="#0A0A0A" opacity="0.6"/>
    <rect x="14" y="64" width="78" height="2" rx="1" fill="#0A0A0A" opacity="0.6"/>
    <rect x="14" y="70" width="56" height="2" rx="1" fill="#0A0A0A" opacity="0.6"/>
    <text x="14" y="124" fill="#0A0A0A" font-size="8" font-weight="600">Mietvertrag.pdf</text>
    <rect x="84" y="108" width="18" height="18" rx="9" fill="#34C759"/>
    <path d="M89 117 L92 120 L97 113" stroke="#fff" stroke-width="1.8" fill="none" stroke-linecap="round" stroke-linejoin="round"/>
  </g>

  <g transform="translate(140, 156)">
    <rect width="110" height="140" rx="12" fill="#fff" opacity="0.95"/>
    <rect x="14" y="14" width="50" height="3" rx="1" fill="#0A0A0A" opacity="0.8"/>
    <rect x="14" y="22" width="36" height="2" rx="1" fill="#0A0A0A" opacity="0.4"/>
    <line x1="14" y1="34" x2="96" y2="34" stroke="#0A0A0A" opacity="0.1"/>
    <rect x="14" y="42" width="80" height="2" rx="1" fill="#0A0A0A" opacity="0.6"/>
    <rect x="14" y="48" width="76" height="2" rx="1" fill="#0A0A0A" opacity="0.6"/>
    <path d="M14 80 Q24 75 34 80 T54 78" stroke="#0066CC" stroke-width="1.5" fill="none"/>
    <text x="14" y="92" fill="#0A0A0A" opacity="0.4" font-size="6">Signature</text>
    <text x="14" y="124" fill="#0A0A0A" font-size="8" font-weight="600">NDA-Apr2026.pdf</text>
    <rect x="84" y="108" width="18" height="18" rx="9" fill="#FFD60A"/>
    <text x="93" y="121" fill="#0A0A0A" font-size="11" font-weight="800" text-anchor="middle">🔒</text>
  </g>

  <g transform="translate(20, 308)">
    <rect width="110" height="140" rx="12" fill="#fff" opacity="0.95"/>
    <rect x="14" y="14" width="56" height="3" rx="1" fill="#0A0A0A" opacity="0.8"/>
    <rect x="14" y="22" width="40" height="2" rx="1" fill="#0A0A0A" opacity="0.4"/>
    <line x1="14" y1="34" x2="96" y2="34" stroke="#0A0A0A" opacity="0.1"/>
    <rect x="14" y="42" width="80" height="2" rx="1" fill="#0A0A0A" opacity="0.6"/>
    <rect x="14" y="48" width="76" height="2" rx="1" fill="#0A0A0A" opacity="0.6"/>
    <rect x="14" y="54" width="60" height="2" rx="1" fill="#0A0A0A" opacity="0.6"/>
    <rect x="14" y="64" width="78" height="2" rx="1" fill="#0A0A0A" opacity="0.6"/>
    <text x="14" y="124" fill="#0A0A0A" font-size="8" font-weight="600">Rechnung_2891.pdf</text>
    <rect x="84" y="108" width="18" height="18" rx="9" fill="rgba(0,0,0,0.1)"/>
  </g>

  <g transform="translate(140, 308)">
    <rect width="110" height="140" rx="12" fill="#fff" opacity="0.95"/>
    <rect x="14" y="14" width="48" height="3" rx="1" fill="#0A0A0A" opacity="0.8"/>
    <rect x="14" y="22" width="36" height="2" rx="1" fill="#0A0A0A" opacity="0.4"/>
    <line x1="14" y1="34" x2="96" y2="34" stroke="#0A0A0A" opacity="0.1"/>
    <rect x="14" y="42" width="80" height="2" rx="1" fill="#0A0A0A" opacity="0.6"/>
    <rect x="14" y="48" width="76" height="2" rx="1" fill="#0A0A0A" opacity="0.6"/>
    <rect x="14" y="54" width="60" height="2" rx="1" fill="#0A0A0A" opacity="0.6"/>
    <text x="14" y="124" fill="#0A0A0A" font-size="8" font-weight="600">Ausweis.pdf</text>
    <rect x="84" y="108" width="18" height="18" rx="9" fill="#34C759"/>
    <path d="M89 117 L92 120 L97 113" stroke="#fff" stroke-width="1.8" fill="none" stroke-linecap="round" stroke-linejoin="round"/>
  </g>

  <!-- Floating action -->
  <circle cx="232" cy="500" r="26" fill="#34C759"/>
  <path d="M232 488 L232 512 M220 500 L244 500" stroke="#fff" stroke-width="3" stroke-linecap="round"/>
</svg>
