<svg viewBox="0 0 280 560" xmlns="http://www.w3.org/2000/svg" fill="none">
  <defs>
    <radialGradient id="s2-bg" cx="0.5" cy="0.3" r="0.9">
      <stop offset="0" stop-color="#0F3B22"/>
      <stop offset="1" stop-color="#020A07"/>
    </radialGradient>
  </defs>
  <rect width="280" height="560" rx="36" fill="url(#s2-bg)"/>

  <text x="22" y="32" fill="#fff" font-family="-apple-system" font-size="12" font-weight="600">9:41</text>
  <rect x="248" y="24" width="14" height="8" rx="2" fill="#fff" opacity="0.8"/>

  <text x="140" y="76" fill="#1DB954" font-size="10" font-weight="700" letter-spacing="2.5" text-anchor="middle">RANGLISTE · SAISON 7</text>
  <text x="140" y="100" fill="#fff" font-family="-apple-system" font-size="22" font-weight="700" text-anchor="middle">Top Spieler</text>

  <!-- Tabs -->
  <rect x="20" y="118" width="76" height="30" rx="15" fill="#1DB954"/>
  <text x="58" y="138" fill="#020A07" font-size="11" font-weight="700" text-anchor="middle">Global</text>
  <rect x="102" y="118" width="76" height="30" rx="15" fill="rgba(255,255,255,0.06)"/>
  <text x="140" y="138" fill="#fff" font-size="11" text-anchor="middle">Wien</text>
  <rect x="184" y="118" width="76" height="30" rx="15" fill="rgba(255,255,255,0.06)"/>
  <text x="222" y="138" fill="#fff" font-size="11" text-anchor="middle">Friends</text>

  <!-- Leaderboard rows -->
  <g transform="translate(20, 168)">
    <rect width="240" height="50" rx="12" fill="rgba(255,215,0,0.08)" stroke="rgba(255,215,0,0.3)"/>
    <text x="22" y="32" fill="#FFD60A" font-size="20" font-weight="800" text-anchor="middle">1</text>
    <circle cx="56" cy="25" r="14" fill="#FFD60A"/>
    <text x="56" y="30" fill="#020A07" font-size="11" font-weight="800" text-anchor="middle">DK</text>
    <text x="80" y="22" fill="#fff" font-size="13" font-weight="700">@dragon_kid</text>
    <text x="80" y="38" fill="rgba(255,255,255,0.6)" font-size="10">🇩🇪 Berlin · 2,4M MXR</text>
    <text x="228" y="32" fill="#FFD60A" font-size="14" font-weight="800" text-anchor="end">98,2k</text>
  </g>

  <g transform="translate(20, 226)">
    <rect width="240" height="50" rx="12" fill="rgba(192,192,192,0.06)" stroke="rgba(192,192,192,0.2)"/>
    <text x="22" y="32" fill="#C0C0C0" font-size="18" font-weight="800" text-anchor="middle">2</text>
    <circle cx="56" cy="25" r="14" fill="#FF375F"/>
    <text x="56" y="30" fill="#fff" font-size="11" font-weight="800" text-anchor="middle">SR</text>
    <text x="80" y="22" fill="#fff" font-size="13" font-weight="700">@solana.ramirez</text>
    <text x="80" y="38" fill="rgba(255,255,255,0.6)" font-size="10">🇲🇽 CDMX · 1,8M MXR</text>
    <text x="228" y="32" fill="#C0C0C0" font-size="14" font-weight="800" text-anchor="end">92,7k</text>
  </g>

  <g transform="translate(20, 284)">
    <rect width="240" height="50" rx="12" fill="rgba(205,127,50,0.06)" stroke="rgba(205,127,50,0.2)"/>
    <text x="22" y="32" fill="#CD7F32" font-size="18" font-weight="800" text-anchor="middle">3</text>
    <circle cx="56" cy="25" r="14" fill="#88B7FF"/>
    <text x="56" y="30" fill="#020A07" font-size="11" font-weight="800" text-anchor="middle">WJ</text>
    <text x="80" y="22" fill="#fff" font-size="13" font-weight="700">@wormjet</text>
    <text x="80" y="38" fill="rgba(255,255,255,0.6)" font-size="10">🇯🇵 Tokyo · 1,5M MXR</text>
    <text x="228" y="32" fill="#CD7F32" font-size="14" font-weight="800" text-anchor="end">89,1k</text>
  </g>

  <g transform="translate(20, 342)">
    <rect width="240" height="44" rx="12" fill="rgba(255,255,255,0.04)"/>
    <text x="22" y="29" fill="rgba(255,255,255,0.6)" font-size="14" font-weight="600" text-anchor="middle">4</text>
    <circle cx="56" cy="22" r="12" fill="rgba(255,255,255,0.15)"/>
    <text x="76" y="20" fill="#fff" font-size="12">@neon_python</text>
    <text x="76" y="34" fill="rgba(255,255,255,0.55)" font-size="9">🇺🇸 NYC</text>
    <text x="228" y="29" fill="#fff" font-size="13" text-anchor="end">81,3k</text>
  </g>

  <g transform="translate(20, 394)">
    <rect width="240" height="44" rx="12" fill="rgba(255,255,255,0.04)"/>
    <text x="22" y="29" fill="rgba(255,255,255,0.6)" font-size="14" font-weight="600" text-anchor="middle">5</text>
    <circle cx="56" cy="22" r="12" fill="rgba(255,255,255,0.15)"/>
    <text x="76" y="20" fill="#fff" font-size="12">@viper.eth</text>
    <text x="76" y="34" fill="rgba(255,255,255,0.55)" font-size="9">🇰🇷 Seoul</text>
    <text x="228" y="29" fill="#fff" font-size="13" text-anchor="end">76,8k</text>
  </g>

  <!-- Player's own rank -->
  <rect x="20" y="456" width="240" height="60" rx="14" fill="rgba(29,185,84,0.18)" stroke="#1DB954"/>
  <text x="34" y="488" fill="#1DB954" font-size="16" font-weight="800">#247</text>
  <circle cx="78" cy="486" r="14" fill="#1DB954"/>
  <text x="78" y="491" fill="#020A07" font-size="11" font-weight="800" text-anchor="middle">DU</text>
  <text x="102" y="481" fill="#fff" font-size="12" font-weight="700">@du.spielst</text>
  <text x="102" y="497" fill="rgba(255,255,255,0.7)" font-size="10">🇦🇹 Wien · 142k MXR</text>
  <text x="246" y="492" fill="#1DB954" font-size="14" font-weight="800" text-anchor="end">42,1k</text>
</svg>
