<svg viewBox="0 0 280 560" xmlns="http://www.w3.org/2000/svg" fill="none">
  <rect width="280" height="560" rx="36" fill="#FFE066"/>
  <text x="22" y="32" fill="#0A0A0F" font-family="-apple-system" font-size="12" font-weight="700">9:41</text>
  <rect x="248" y="24" width="14" height="8" rx="2" fill="#0A0A0F" opacity="0.8"/>

  <text x="22" y="74" fill="#7A5A00" font-size="10" font-weight="600" letter-spacing="2">QUITTUNG</text>
  <text x="22" y="98" fill="#0A0A0F" font-family="-apple-system" font-size="22" font-weight="700">Fahrt abgeschlossen</text>

  <!-- Receipt card -->
  <g transform="translate(20, 124)">
    <rect width="240" height="284" rx="18" fill="#fff"/>

    <text x="120" y="32" fill="#0A0A0F" font-size="14" font-weight="700" text-anchor="middle">Mehmet K. · W-94821</text>
    <text x="120" y="48" fill="rgba(10,10,15,0.6)" font-size="10" text-anchor="middle">13. Mai 2026 · 14:42</text>

    <line x1="20" y1="64" x2="220" y2="64" stroke="rgba(10,10,15,0.1)"/>

    <text x="20" y="86" fill="rgba(10,10,15,0.6)" font-size="11">Grundgebühr</text>
    <text x="220" y="86" fill="#0A0A0F" font-size="12" font-weight="600" text-anchor="end">€&#8201;3,80</text>

    <text x="20" y="106" fill="rgba(10,10,15,0.6)" font-size="11">Strecke · 27 km</text>
    <text x="220" y="106" fill="#0A0A0F" font-size="12" font-weight="600" text-anchor="end">€&#8201;32,40</text>

    <text x="20" y="126" fill="rgba(10,10,15,0.6)" font-size="11">Wartezeit · 0:00</text>
    <text x="220" y="126" fill="#0A0A0F" font-size="12" font-weight="600" text-anchor="end">€&#8201;0,00</text>

    <text x="20" y="146" fill="rgba(10,10,15,0.6)" font-size="11">Flughafen-Zuschlag</text>
    <text x="220" y="146" fill="#0A0A0F" font-size="12" font-weight="600" text-anchor="end">€&#8201;3,00</text>

    <text x="20" y="166" fill="rgba(10,10,15,0.6)" font-size="11">Trinkgeld</text>
    <text x="220" y="166" fill="#0A0A0F" font-size="12" font-weight="600" text-anchor="end">€&#8201;2,80</text>

    <line x1="20" y1="184" x2="220" y2="184" stroke="rgba(10,10,15,0.1)"/>

    <text x="20" y="210" fill="#0A0A0F" font-size="13" font-weight="700">Gesamt</text>
    <text x="220" y="210" fill="#0A0A0F" font-size="18" font-weight="800" text-anchor="end">€&#8201;42,00</text>

    <line x1="20" y1="226" x2="220" y2="226" stroke="rgba(10,10,15,0.1)"/>

    <text x="20" y="250" fill="rgba(10,10,15,0.55)" font-size="10">USt. (10 %)</text>
    <text x="220" y="250" fill="rgba(10,10,15,0.55)" font-size="10" text-anchor="end">€&#8201;3,82</text>

    <text x="20" y="268" fill="rgba(10,10,15,0.55)" font-size="10">Apple Pay · •• 4421</text>
  </g>

  <!-- Bewertung -->
  <text x="22" y="442" fill="#7A5A00" font-size="10" font-weight="600" letter-spacing="2">BEWERTUNG</text>
  <g transform="translate(22, 460)">
    <text x="0" y="20" font-size="28">⭐</text>
    <text x="32" y="20" font-size="28">⭐</text>
    <text x="64" y="20" font-size="28">⭐</text>
    <text x="96" y="20" font-size="28">⭐</text>
    <text x="128" y="20" font-size="28">⭐</text>
  </g>

  <!-- New trip button -->
  <rect x="20" y="510" width="240" height="38" rx="14" fill="#0A0A0F"/>
  <text x="140" y="534" fill="#FFD60A" font-size="12" font-weight="700" text-anchor="middle">Nächste Fahrt buchen</text>
</svg>
