<svg viewBox="0 0 280 560" xmlns="http://www.w3.org/2000/svg" fill="none">
  <rect width="280" height="560" rx="36" fill="#0A0A0F"/>
  <text x="22" y="32" fill="#fff" font-family="-apple-system" font-size="12" font-weight="600">9:41</text>
  <rect x="248" y="24" width="14" height="8" rx="2" fill="#fff" opacity="0.8"/>

  <text x="22" y="74" fill="#FFD60A" font-size="10" font-weight="600" letter-spacing="2">FAHRT BESTÄTIGEN</text>
  <text x="22" y="98" fill="#fff" font-family="-apple-system" font-size="22" font-weight="700">€&#8201;42,00</text>

  <!-- Trip details -->
  <g transform="translate(20, 124)">
    <rect width="240" height="100" rx="14" fill="rgba(255,255,255,0.06)"/>
    <circle cx="22" cy="30" r="6" fill="#34C759"/>
    <line x1="22" y1="40" x2="22" y2="70" stroke="rgba(255,255,255,0.25)" stroke-width="1.5" stroke-dasharray="2,3"/>
    <rect x="18" y="74" width="8" height="8" rx="2" fill="#FFD60A"/>

    <text x="42" y="22" fill="rgba(255,255,255,0.5)" font-size="9" letter-spacing="1">PICKUP</text>
    <text x="42" y="38" fill="#fff" font-size="13" font-weight="600">Bäckerstraße 7</text>
    <text x="42" y="52" fill="rgba(255,255,255,0.6)" font-size="10">1010 Wien</text>

    <text x="42" y="68" fill="rgba(255,255,255,0.5)" font-size="9" letter-spacing="1">DESTINATION</text>
    <text x="42" y="84" fill="#fff" font-size="13" font-weight="600">Flughafen Wien · VIE</text>
    <text x="42" y="98" fill="rgba(255,255,255,0.6)" font-size="10">Terminal 3 · 27 km</text>
  </g>

  <!-- Driver card -->
  <text x="22" y="252" fill="#FFD60A" font-size="10" font-weight="600" letter-spacing="2">IHR FAHRER</text>
  <g transform="translate(20, 268)">
    <rect width="240" height="80" rx="14" fill="rgba(255,255,255,0.06)"/>
    <circle cx="44" cy="40" r="24" fill="#FFD60A"/>
    <text x="44" y="46" fill="#0A0A0F" font-size="16" font-weight="800" text-anchor="middle">MK</text>
    <text x="80" y="32" fill="#fff" font-size="14" font-weight="700">Mehmet K.</text>
    <text x="80" y="46" fill="rgba(255,255,255,0.6)" font-size="10">Toyota Prius · W-94821</text>
    <text x="80" y="60" fill="#FFD60A" font-size="11">★ 4,92 · 1,4k Fahrten</text>
    <rect x="194" y="30" width="36" height="22" rx="6" fill="#34C759"/>
    <text x="212" y="44" fill="#0A0A0F" font-size="10" font-weight="700" text-anchor="middle">Anruf</text>
  </g>

  <!-- ETA -->
  <text x="22" y="380" fill="#FFD60A" font-size="10" font-weight="600" letter-spacing="2">ANKUNFT IN</text>
  <text x="22" y="406" fill="#fff" font-size="32" font-weight="800">4 Min.</text>
  <text x="98" y="403" fill="rgba(255,255,255,0.6)" font-size="11">• 220 m entfernt</text>

  <!-- Payment -->
  <g transform="translate(20, 426)">
    <rect width="240" height="50" rx="14" fill="rgba(255,255,255,0.06)"/>
    <rect x="14" y="14" width="32" height="22" rx="4" fill="#fff"/>
    <text x="30" y="29" fill="#0A0A0F" font-size="10" font-weight="700" text-anchor="middle">Pay</text>
    <text x="56" y="22" fill="rgba(255,255,255,0.5)" font-size="9" letter-spacing="1">ZAHLUNG</text>
    <text x="56" y="38" fill="#fff" font-size="13" font-weight="600">Apple Pay · iPhone 16</text>
    <text x="226" y="32" fill="#34C759" font-size="11" text-anchor="end">›</text>
  </g>

  <!-- Confirm -->
  <rect x="20" y="490" width="240" height="48" rx="14" fill="#FFD60A"/>
  <text x="140" y="519" fill="#0A0A0F" font-size="14" font-weight="700" text-anchor="middle">Fahrt bestätigen · € 42</text>
</svg>
