<svg viewBox="0 0 800 600" xmlns="http://www.w3.org/2000/svg" fill="none">
  <defs>
    <linearGradient id="c-bg" x1="0" y1="0" x2="0" y2="1"><stop offset="0" stop-color="#F5F0E8"/><stop offset="1" stop-color="#E8DFD0"/></linearGradient>
    <linearGradient id="c-counter" x1="0" y1="0" x2="0" y2="1"><stop offset="0" stop-color="#3D2415"/><stop offset="1" stop-color="#2A1A0F"/></linearGradient>
  </defs>
  <rect width="800" height="600" fill="url(#c-bg)"/>
  <!-- Wall pattern -->
  <line x1="0" y1="80" x2="800" y2="80" stroke="rgba(91,59,31,0.08)"/>
  <line x1="0" y1="160" x2="800" y2="160" stroke="rgba(91,59,31,0.08)"/>
  <!-- Shelf with mugs -->
  <rect x="100" y="180" width="600" height="6" fill="#5B3B1F"/>
  <!-- Mugs on shelf -->
  <g transform="translate(150 130)">
    <rect x="0" y="0" width="32" height="50" rx="3" fill="#FFFFFF"/>
    <ellipse cx="16" cy="0" rx="16" ry="3" fill="#F0EDE5"/>
    <path d="M32 15 Q48 15 48 30 Q48 45 32 45" stroke="#FFFFFF" stroke-width="3" fill="none"/>
    <text x="16" y="32" font-family="JetBrains Mono" font-size="9" fill="#1D1D1F" text-anchor="middle">VG</text>
  </g>
  <g transform="translate(220 130)">
    <rect x="0" y="0" width="32" height="50" rx="3" fill="#0A0A0F"/>
    <ellipse cx="16" cy="0" rx="16" ry="3" fill="#1D1D1F"/>
    <path d="M32 15 Q48 15 48 30 Q48 45 32 45" stroke="#0A0A0F" stroke-width="3" fill="none"/>
  </g>
  <g transform="translate(290 130)">
    <rect x="0" y="0" width="32" height="50" rx="3" fill="#FF6B5C"/>
    <ellipse cx="16" cy="0" rx="16" ry="3" fill="#FF8A7A"/>
    <path d="M32 15 Q48 15 48 30 Q48 45 32 45" stroke="#FF6B5C" stroke-width="3" fill="none"/>
  </g>
  <g transform="translate(360 130)">
    <rect x="0" y="0" width="32" height="50" rx="3" fill="#FFD60A"/>
    <ellipse cx="16" cy="0" rx="16" ry="3" fill="#FFE066"/>
    <path d="M32 15 Q48 15 48 30 Q48 45 32 45" stroke="#FFD60A" stroke-width="3" fill="none"/>
  </g>
  <g transform="translate(430 130)">
    <rect x="0" y="0" width="32" height="50" rx="3" fill="#34C759"/>
    <ellipse cx="16" cy="0" rx="16" ry="3" fill="#5EEAD4"/>
    <path d="M32 15 Q48 15 48 30 Q48 45 32 45" stroke="#34C759" stroke-width="3" fill="none"/>
  </g>
  <g transform="translate(500 130)">
    <rect x="0" y="0" width="32" height="50" rx="3" fill="#88B7FF"/>
    <ellipse cx="16" cy="0" rx="16" ry="3" fill="#B8D3FF"/>
    <path d="M32 15 Q48 15 48 30 Q48 45 32 45" stroke="#88B7FF" stroke-width="3" fill="none"/>
  </g>
  <!-- Espresso machine -->
  <rect x="200" y="280" width="180" height="120" rx="6" fill="#1D1D1F"/>
  <rect x="200" y="280" width="180" height="6" fill="#3A3A3D"/>
  <circle cx="240" cy="320" r="14" fill="#3A3A3D" stroke="#5A5A5D" stroke-width="2"/>
  <circle cx="240" cy="320" r="6" fill="#0A0A0F"/>
  <circle cx="290" cy="320" r="14" fill="#3A3A3D" stroke="#5A5A5D" stroke-width="2"/>
  <circle cx="290" cy="320" r="6" fill="#FF6B5C"/>
  <rect x="220" y="350" width="140" height="6" rx="2" fill="#3A3A3D"/>
  <!-- Group head + portafilter -->
  <rect x="250" y="360" width="40" height="30" fill="#3A3A3D"/>
  <rect x="260" y="385" width="20" height="14" fill="#0A0A0F"/>
  <!-- Steam wand -->
  <rect x="356" y="295" width="3" height="60" fill="#5A5A5D"/>
  <circle cx="357" cy="358" r="3" fill="#3A3A3D"/>
  <!-- Coffee cup with espresso -->
  <ellipse cx="300" cy="430" rx="22" ry="6" fill="#0F0F12"/>
  <rect x="278" y="424" width="44" height="50" rx="4" fill="#FFFFFF"/>
  <ellipse cx="300" cy="430" rx="20" ry="4" fill="#3D2415"/>
  <ellipse cx="300" cy="432" rx="16" ry="3" fill="#5A3520"/>
  <!-- Counter -->
  <rect x="0" y="400" width="800" height="200" fill="url(#c-counter)"/>
  <rect x="0" y="400" width="800" height="6" fill="#5B3B1F"/>
  <!-- Coffee beans pile -->
  <g transform="translate(500 410)">
    <ellipse cx="0" cy="0" rx="40" ry="14" fill="#2A1A0F"/>
    <ellipse cx="-10" cy="-3" rx="8" ry="4" fill="#3D2415"/>
    <ellipse cx="5" cy="-2" rx="8" ry="4" fill="#3D2415"/>
    <ellipse cx="15" cy="-4" rx="7" ry="3" fill="#3D2415"/>
    <ellipse cx="-20" cy="-6" rx="7" ry="3" fill="#4A2C1A"/>
  </g>
  <!-- Pour-over setup -->
  <g transform="translate(620 380)">
    <ellipse cx="0" cy="0" rx="30" ry="6" fill="#1D1D1F"/>
    <path d="M-26 0 Q-30 30 -10 35 L10 35 Q30 30 26 0 Z" fill="#3A2415"/>
    <path d="M-20 5 Q-22 25 -5 30 L5 30 Q22 25 20 5 Z" fill="#5B3B1F"/>
    <ellipse cx="0" cy="5" rx="14" ry="3" fill="#2A1A0F"/>
  </g>
  <!-- "Coffee" sign -->
  <rect x="600" y="180" width="100" height="40" rx="4" fill="#1D1D1F"/>
  <text x="650" y="206" font-family="Inter" font-size="14" font-weight="700" fill="#FFD60A" text-anchor="middle">COFFEE</text>
</svg>
