<svg viewBox="0 0 24 24" xmlns="http://www.w3.org/2000/svg" fill="currentColor">
  <path d="M17.05 12.04c-.03-2.94 2.4-4.36 2.51-4.43-1.37-2-3.5-2.28-4.26-2.31-1.81-.18-3.54 1.06-4.46 1.06-.93 0-2.34-1.03-3.85-1-1.98.03-3.81 1.15-4.83 2.92-2.06 3.58-.53 8.86 1.48 11.77.98 1.42 2.15 3.02 3.68 2.96 1.48-.06 2.04-.96 3.83-.96 1.79 0 2.29.96 3.85.93 1.59-.03 2.6-1.45 3.57-2.88 1.12-1.65 1.59-3.24 1.61-3.32-.03-.02-3.1-1.19-3.13-4.74M14.21 4.16c.82-1 1.37-2.39 1.22-3.77-1.18.05-2.61.78-3.46 1.78-.76.88-1.42 2.29-1.24 3.65 1.32.1 2.66-.67 3.48-1.66"/>
</svg>
